<?xml version="1.0" encoding="utf-8"?>
<!-- Generator: Adobe Illustrator 25.4.1, SVG Export Plug-In . SVG Version: 6.00 Build 0)  -->
<svg version="1.1" id="Layer_1" xmlns="http://www.w3.org/2000/svg" xmlns:xlink="http://www.w3.org/1999/xlink" x="0px" y="0px"
	 viewBox="0 0 288 288" style="enable-background:new 0 0 288 288;" xml:space="preserve">
<style type="text/css">
	.st0{fill:#065789;}
	.st1{fill:#FFFFFF;}
</style>
<polygon class="st0" points="288,288 0,288 0,18.4 0,0 288,0 "/>
<path class="st1" d="M237,248.5c-2.9,0-5.9-1.1-8.1-3.4l-186-186c-4.5-4.5-4.5-11.8,0-16.3c4.5-4.5,11.8-4.5,16.3,0l186,186
	c4.5,4.5,4.5,11.8,0,16.3C242.9,247.4,239.9,248.5,237,248.5z"/>
<path class="st1" d="M51,248.5c-2.9,0-5.9-1.1-8.1-3.4c-4.5-4.5-4.5-11.8,0-16.3l186-186c4.5-4.5,11.8-4.5,16.3,0
	c4.5,4.5,4.5,11.8,0,16.3l-186,186C56.9,247.4,53.9,248.5,51,248.5z"/>
</svg>
