<?xml version="1.0" encoding="utf-8"?>
<!-- Generator: Adobe Illustrator 25.4.1, SVG Export Plug-In . SVG Version: 6.00 Build 0)  -->
<svg version="1.1" id="Layer_1" xmlns="http://www.w3.org/2000/svg" xmlns:xlink="http://www.w3.org/1999/xlink" x="0px" y="0px"
	 viewBox="0 0 288 288" style="enable-background:new 0 0 288 288;" xml:space="preserve">
<style type="text/css">
	.st0{fill:#065789;}
	.st1{fill:#FFFFFF;}
</style>
<polygon class="st0" points="288,288 0,288 0,18.4 0,0 288,0 "/>
<path class="st1" d="M247.7,130.6c-29.6,0-59.3,0-88.7,0c13.3-13.3,26.8-26.8,40.6-40.5c-11.6-11.7-24-18.9-38.6-22.1
	c-51.1-11.1-97.7,28.8-94.8,81c2,36.2,31.2,67.6,67,71.9c36.5,4.5,68.3-13.9,83-47.7c0.6-1.3,2.4-3,3.7-3c7.8-0.3,15.7-0.1,25-0.1
	c-3.6,8.4-6.2,16.6-10.4,23.8c-17.7,31-44.4,48.9-80,53c-0.9,0.1-1.7,0.5-2.6,0.7c-5.2,0-10.5,0-15.7,0c-0.9-0.2-1.7-0.6-2.6-0.7
	c-41.4-4.1-76.3-32.5-88.3-72.3c-2.4-8-3.3-16.5-5-24.7c0-4,0-8,0-12c0.3-1.2,0.6-2.3,0.7-3.5c4.2-45.5,37.3-82.7,82.1-92
	c4.3-0.9,8.7-1.5,13.1-2.2c5.2,0,10.5,0,15.7,0c0.9,0.2,1.7,0.6,2.6,0.7c11.6,1,22.9,3.6,33,9.2c10.5,5.8,20.4,12.8,31.1,19.6
	c5.3-5.3,11.3-11.6,17.6-17.7c3.8-3.7,7.8-7.3,11.6-10.9C247.7,71,247.7,100.8,247.7,130.6z"/>
</svg>
