<?xml version="1.0" encoding="utf-8"?>
<!-- Generator: Adobe Illustrator 25.4.1, SVG Export Plug-In . SVG Version: 6.00 Build 0)  -->
<svg version="1.1" id="Layer_1" xmlns="http://www.w3.org/2000/svg" xmlns:xlink="http://www.w3.org/1999/xlink" x="0px" y="0px"
	 viewBox="0 0 288 288" style="enable-background:new 0 0 288 288;" xml:space="preserve">
<style type="text/css">
	.st0{fill:#065789;}
	.st1{fill:#FFFFFF;}
</style>
<polygon class="st0" points="288,288 0,288 0,18.4 0,0 288,0 "/>
<g>
	<path class="st1" d="M166.1,196.3c-41.5,22.3-86.8,10.4-110.7-19.3c-20.8-25.9-26.1-54.9-14.1-86C53.1,60.2,76,41.8,108.6,36.8
		c34-5.3,62.2,6.3,82.6,33.7c20.3,27.5,22.4,57.8,8.3,88.9c-2.4,5.3-1.4,8,2.4,11.7c14.9,14.6,29.7,29.3,44.3,44.2
		c6.3,6.4,8.8,14.2,5.3,23.1c-3.3,8.3-9.4,13.1-18.2,14c-7.5,0.8-13.6-2.1-18.9-7.5C198.4,228.6,182.3,212.6,166.1,196.3z
		 M189.7,121.8c0-37.8-30.6-68.4-68-68.2c-37.2,0.2-67.6,30.6-67.9,67.7c-0.3,37.4,30.3,68.3,67.9,68.4
		C159.4,189.9,189.7,159.7,189.7,121.8z"/>
	<path class="st1" d="M122.3,78.5c0-3.7,0-6.9,0-10c26.9-3.1,52.5,22,53.5,52.5c-3.2,0-6.3,0-10.3,0
		C162.1,96.6,148.7,81.4,122.3,78.5z"/>
</g>
</svg>
