<?xml version="1.0" encoding="utf-8"?>
<!-- Generator: Adobe Illustrator 25.4.1, SVG Export Plug-In . SVG Version: 6.00 Build 0)  -->
<svg version="1.1" id="Layer_1" xmlns="http://www.w3.org/2000/svg" xmlns:xlink="http://www.w3.org/1999/xlink" x="0px" y="0px"
	 viewBox="0 0 288 288" style="enable-background:new 0 0 288 288;" xml:space="preserve">
<g>
	<path d="M288,144c0,79.7-64.5,144.1-144.4,144C64.2,287.9-0.4,223.2,0,143.1C0.4,64.4,64.7-0.4,144.7,0
		C223.6,0.4,287.9,64.3,288,144z M239.8,243.1c36.5-34.2,54.8-93.3,32.4-150.1C251,39.4,195-0.5,128,7C71,13.3,20.2,56.4,8.5,118.4
		c-5.4,28.6-2,56.3,10,82.9c7.2,15.9,17.1,29.8,29.7,42c0.5-1.1,0.9-2,1.3-2.8c0.4-0.9,0.9-1.7,1.3-2.6
		c5.8-11.6,14.2-20.7,25.1-27.5c9.6-6,20.1-9.4,31.1-11.8c9.9-2.1,20-3,30.1-3.3c12.5-0.3,25,0.1,37.4,2.1c10.8,1.7,21.2,4.6,31,9.4
		c11.6,5.7,21,13.9,27.9,24.9C235.8,235.4,237.7,239.3,239.8,243.1z"/>
	<path d="M144,186.4c-31.7,0-57.6-25.7-57.6-57.3c0-32.1,25.7-58,57.7-57.9c32.1,0.1,57.3,26,57.4,57
		C201.7,160.7,176.1,186.4,144,186.4z"/>
</g>
</svg>
