<?xml version="1.0" encoding="utf-8"?>
<!-- Generator: Adobe Illustrator 25.4.1, SVG Export Plug-In . SVG Version: 6.00 Build 0)  -->
<svg version="1.1" id="Layer_1" xmlns="http://www.w3.org/2000/svg" xmlns:xlink="http://www.w3.org/1999/xlink" x="0px" y="0px"
	 viewBox="0 0 288 288" style="enable-background:new 0 0 288 288;" xml:space="preserve">
<style type="text/css">
	.st0{fill:#065789;}
	.st1{fill:#FFFFFF;}
</style>
<polygon class="st0" points="288,288 0,288 0,18.4 0,0 288,0 "/>
<g>
	<path class="st1" d="M87.1,67.3c0-2.4-0.1-4.6,0-6.9c0.2-7.6,5.8-14,13.9-14.4c7.6-0.4,14.6,6.4,14.7,14.1c0.1,2.3,0,4.6,0,7.1
		c4.9,0,9.8,0,14.9,0c0-2.4,0-4.7,0-7c0.1-7.7,7.1-14.6,14.8-14.1c7.1,0.5,12.5,5.5,13.4,12.2c0.4,2.9,0.4,5.9,0.5,8.9
		c0.4,0,0.8,0.1,1.1,0.1c4.4,0,8.9,0,13.5,0c0-2.4-0.1-4.6,0-6.8c0.2-5.1,2.3-9.2,6.5-12.1c9.5-6.3,20.2,0.4,21.7,9.6
		c0.4,2.3,0.3,4.7,0.4,7c0,0.7,0,1.3,0,2.4c2.6,0,5.1-0.1,7.5,0c9,0.3,17.6,6.9,20.3,16.5c0.5,1.9,0.8,4,0.8,6
		c0,43.1,0,86.2,0,129.4c0,10.9-8,20.4-18.8,22.2c-1.9,0.3-3.8,0.5-5.7,0.5c-42.3,0-84.5,0-126.8,0c-11,0-20.2-7.1-22.9-17.8
		c-0.4-1.5-0.6-3.1-0.6-4.7c0-35.7,0-71.4,0-107.1c0-7.3,0.1-14.6,0-21.9c-0.3-11.9,9.3-23.3,23-23.3C82.1,67.3,84.5,67.3,87.1,67.3
		z M70,100.9c0,0.8,0,1.4,0,2c0,7.1,0,14.3,0,21.4c0,30.8,0,61.5,0,92.3c0,1.6,0,3.3,0.4,4.8c1,4.5,4.8,7.1,9.9,7.1
		c32.8,0,65.6,0,98.4,0c9.9,0,19.9,0,29.8,0c5,0,9-3.6,9.3-8.6c0.3-4.8,0.2-9.6,0.2-14.5c0-34.2,0-68.5,0-102.7
		c0-0.6-0.1-1.2-0.1-1.9C168.6,100.9,119.4,100.9,70,100.9z M194.6,73.9c0-4.5,0-9,0-13.5c0-2.9-1.9-5.3-4.6-6.2
		c-2.5-0.8-5.2,0-6.7,2.5c-0.8,1.3-1.2,2.9-1.3,4.4c-0.1,7.7-0.1,15.4-0.1,23c0,1.1,0,2.2,0.1,3.4c0.4,3.8,3.1,6.3,6.7,6.1
		c3.3-0.1,5.9-3,5.9-6.7C194.6,82.7,194.6,78.3,194.6,73.9z M138.6,74C138.6,74,138.6,74,138.6,74c0,4.5-0.1,9,0,13.5
		c0.1,3.6,2.7,6.3,6,6.4c3.4,0.1,6.4-2.6,6.4-6.2c0.1-9.1,0.1-18.3,0-27.4c0-2.6-1.5-4.6-3.9-5.7c-3.8-1.8-8.4,1.1-8.6,5.4
		C138.5,64.7,138.6,69.3,138.6,74z M107.6,74.1c0-4.4,0-8.9,0-13.3c0-3.8-2.8-6.7-6.3-6.8c-3.4,0-6.3,3-6.3,6.8c0,8.7,0,17.5,0,26.2
		c0,3.9,2.7,6.8,6.4,6.8c3.5,0,6.1-2.9,6.2-6.8C107.6,82.7,107.6,78.4,107.6,74.1z"/>
	<path class="st1" d="M82.4,124.8c8.2,0,16.2,0,24.3,0c0.1,0.5,0.1,0.9,0.1,1.3c0,6.3,0,12.7,0,19c0,0.9,0,1.5-1.2,1.5
		c-7.6,0-15.2,0-22.7,0c-0.2,0-0.3-0.1-0.6-0.2C82.4,139.3,82.4,132.1,82.4,124.8z"/>
	<path class="st1" d="M205.7,124.9c0,7.2,0,14.4,0,21.6c-0.5,0-1,0.1-1.5,0.1c-7.1,0-14.3,0-21.4,0c-1.4,0-1.7-0.4-1.7-1.7
		c0.1-6.2,0-12.3,0-18.5c0-0.5,0.1-1,0.1-1.6C189.4,124.9,197.5,124.9,205.7,124.9z"/>
	<path class="st1" d="M82.4,175.8c0-7.2,0-14.3,0-21.6c8.1,0,16.2,0,24.4,0c0,7.1,0,14.3,0,21.6C98.6,175.8,90.6,175.8,82.4,175.8z"
		/>
	<path class="st1" d="M82.4,183.4c8.2,0,16.2,0,24.3,0c0.1,0.4,0.2,0.8,0.2,1.1c0,6.4,0,12.8,0,19.2c0,1.1-0.2,1.5-1.4,1.5
		c-7.4,0-14.8,0-22.2,0c-0.3,0-0.5-0.1-0.9-0.1C82.4,197.9,82.4,190.8,82.4,183.4z"/>
	<path class="st1" d="M205.6,205.2c-0.5,0-0.9,0.1-1.4,0.1c-7.1,0-14.3,0-21.4,0c-1.3,0-1.8-0.3-1.7-1.7c0.1-6.2,0-12.5,0-18.7
		c0-0.4,0-0.9,0.1-1.4c8.1,0,16.2,0,24.4,0C205.6,190.7,205.6,197.9,205.6,205.2z"/>
	<path class="st1" d="M181.4,154.2c8,0,16.1,0,24.2,0c0,7.2,0,14.3,0,21.6c-0.5,0-0.9,0.1-1.3,0.1c-7.2,0-14.5,0-21.7,0
		c-0.8,0-1.4,0-1.4-1.1c0-6.7,0-13.5,0.1-20.2C181.2,154.5,181.3,154.4,181.4,154.2z"/>
	<path class="st1" d="M139.7,124.9c0,7.3,0,14.4,0,21.7c-8.1,0-16.1,0-24.2,0c0-7.2,0-14.4,0-21.7
		C123.4,124.9,131.4,124.9,139.7,124.9z"/>
	<path class="st1" d="M148.4,124.9c8.1,0,16.1,0,24.2,0c0,7.2,0,14.4,0,21.7c-8.1,0-16.1,0-24.2,0
		C148.4,139.4,148.4,132.2,148.4,124.9z"/>
	<path class="st1" d="M115.4,175.8c0-7.2,0-14.3,0-21.6c8,0,16.1,0,24.2,0c0,7.1,0,14.3,0,21.6C131.6,175.8,123.6,175.8,115.4,175.8
		z"/>
	<path class="st1" d="M172.6,154.2c0,7.2,0,14.4,0,21.6c-8.1,0-16.1,0-24.2,0c0-7.2,0-14.4,0-21.6
		C156.5,154.2,164.5,154.2,172.6,154.2z"/>
	<path class="st1" d="M115.4,183.5c8.1,0,16.1,0,24.2,0c0,7.2,0,14.4,0,21.7c-8.1,0-16.1,0-24.2,0
		C115.4,197.9,115.4,190.8,115.4,183.5z"/>
	<path class="st1" d="M172.6,183.5c0,7.3,0,14.4,0,21.7c-8.1,0-16.1,0-24.2,0c0-7.3,0-14.4,0-21.7
		C156.5,183.5,164.5,183.5,172.6,183.5z"/>
</g>
</svg>
